<svg width="70" height="70" viewBox="0 0 70 70" fill="none" xmlns="http://www.w3.org/2000/svg">
<path d="M16.667 46H53.3337V60.6667C53.3337 62.6116 52.561 64.4768 51.1858 65.8521C49.8105 67.2274 47.9452 68 46.0003 68H24.0003C22.0554 68 20.1901 67.2274 18.8149 65.8521C17.4396 64.4768 16.667 62.6116 16.667 60.6667V46Z" stroke="white" stroke-width="4" stroke-linecap="round" stroke-linejoin="round"/>
<path d="M35 24C35 18.1652 32.6821 12.5695 28.5563 8.44365C24.4305 4.31785 18.8348 2 13 2H2V9.33333C2 15.1681 4.31785 20.7639 8.44365 24.8897C12.5695 29.0155 18.1652 31.3333 24 31.3333H35" stroke="white" stroke-width="4" stroke-linecap="round" stroke-linejoin="round"/>
<path d="M35 31.3335C35 25.4987 37.3179 19.9029 41.4437 15.7771C45.5695 11.6513 51.1652 9.3335 57 9.3335H68V13.0002C68 18.8349 65.6822 24.4307 61.5564 28.5565C57.4306 32.6823 51.8348 35.0002 46 35.0002H35" stroke="white" stroke-width="4" stroke-linecap="round" stroke-linejoin="round"/>
<path d="M35 46V24" stroke="white" stroke-width="4" stroke-linecap="round" stroke-linejoin="round"/>
</svg>
